<svg width="36" height="36" viewBox="0 0 36 36" fill="none" xmlns="http://www.w3.org/2000/svg">
<path fill-rule="evenodd" clip-rule="evenodd" d="M18 36C27.9411 36 36 27.9411 36 18C36 8.05887 27.9411 0 18 0C8.05887 0 0 8.05887 0 18C0 27.9411 8.05887 36 18 36ZM16.2209 9.9642C17.1775 9.41191 17.5053 8.18873 16.953 7.23215C16.4007 6.27556 15.1775 5.94781 14.2209 6.5001C13.2643 7.05238 12.9366 8.27556 13.4889 9.23215C14.0412 10.1887 15.2643 10.5165 16.2209 9.9642ZM11.3629 19.2915C10.8106 18.3349 11.1384 17.1117 12.0949 16.5594L19.8571 12.0779C20.8137 11.5257 22.0369 11.8534 22.5892 12.81C23.1414 13.7666 22.8137 14.9898 21.8571 15.542L14.0949 20.0235C13.1384 20.5758 11.9152 20.2481 11.3629 19.2915ZM11.732 25.8927C10.7754 26.445 10.4477 27.6681 11 28.6247C11.5523 29.5813 12.7754 29.9091 13.732 29.3568L25.9847 22.2827C26.9413 21.7304 27.269 20.5072 26.7167 19.5506C26.1645 18.5941 24.9413 18.2663 23.9847 18.8186L11.732 25.8927Z" fill="#3F5BD0" fill-opacity="0.9"/>
</svg>
