<svg width="24" height="24" viewBox="0 0 24 24" fill="none" xmlns="http://www.w3.org/2000/svg">
<path d="M17.2015 2H6.79888C5.34112 2 4.06214 2.9847 4.00372 4.40355C3.93021 6.18879 5.18576 7.37422 6.50447 8.4871C8.32873 10.0266 9.24087 10.7964 9.33654 11.7708C9.35151 11.9233 9.35151 12.0767 9.33654 12.2292C9.24087 13.2036 8.32874 13.9734 6.50447 15.5129C5.14944 16.6564 3.92642 17.7195 4.00372 19.5964C4.06214 21.0153 5.34112 22 6.79888 22H17.2015C18.6592 22 19.9382 21.0153 19.9966 19.5964C20.0431 18.4668 19.6245 17.342 18.7353 16.56C18.3299 16.2034 17.909 15.8615 17.4959 15.5129C15.6716 13.9734 14.7595 13.2036 14.6638 12.2292C14.6488 12.0767 14.6488 11.9233 14.6638 11.7708C14.7595 10.7964 15.6716 10.0266 17.4959 8.4871C18.8367 7.35558 20.073 6.25809 19.9966 4.40355C19.9382 2.9847 18.6592 2 17.2015 2Z" stroke="black" stroke-width="1.5"/>
<path d="M9 21.6381C9 21.1962 9 20.9752 9.0876 20.7821C9.10151 20.7514 9.11699 20.7214 9.13399 20.6923C9.24101 20.509 9.42211 20.3796 9.78432 20.1208C10.7905 19.4021 11.2935 19.0427 11.8652 19.0045C11.955 18.9985 12.045 18.9985 12.1348 19.0045C12.7065 19.0427 13.2095 19.4021 14.2157 20.1208C14.5779 20.3796 14.759 20.509 14.866 20.6923C14.883 20.7214 14.8985 20.7514 14.9124 20.7821C15 20.9752 15 21.1962 15 21.6381V22H9V21.6381Z" stroke="black" stroke-width="1.5" stroke-linecap="round"/>
</svg>
