<svg width="24" height="24" viewBox="0 0 24 24" fill="none" xmlns="http://www.w3.org/2000/svg">
<path d="M13 15C10.7083 21 4.29167 15 2 21" stroke="url(#paint0_linear_354_3030)" stroke-width="1.5" stroke-linecap="round" stroke-linejoin="round"/>
<path d="M15.5 15H17.0013C19.3583 15 20.5368 15 21.2691 14.2678C22.0013 13.5355 22.0013 12.357 22.0013 10V8C22.0013 5.64298 22.0013 4.46447 21.2691 3.73223C20.5368 3 19.3583 3 17.0013 3H13.0013C10.6443 3 9.46576 3 8.73353 3.73223C8.11312 4.35264 8.01838 5.29344 8.00391 7" stroke="url(#paint1_linear_354_3030)" stroke-width="1.5" stroke-linecap="round" stroke-linejoin="round"/>
<path d="M7.5 15C8.88071 15 10 13.8807 10 12.5C10 11.1193 8.88071 10 7.5 10C6.11929 10 5 11.1193 5 12.5C5 13.8807 6.11929 15 7.5 15Z" stroke="url(#paint2_linear_354_3030)" stroke-width="1.5" stroke-linecap="round" stroke-linejoin="round"/>
<path d="M12 7H18M18 11H15" stroke="url(#paint3_linear_354_3030)" stroke-width="1.5" stroke-linecap="round" stroke-linejoin="round"/>
<defs>
<linearGradient id="paint0_linear_354_3030" x1="2" y1="16.2295" x2="13.1462" y2="16.5999" gradientUnits="userSpaceOnUse">
<stop stop-color="#000"/>
<stop offset="1" stop-color="#000"/>
</linearGradient>
<linearGradient id="paint1_linear_354_3030" x1="8.00391" y1="5.45902" x2="22.1967" y2="5.7591" gradientUnits="userSpaceOnUse">
<stop stop-color="#000"/>
<stop offset="1" stop-color="#000"/>
</linearGradient>
<linearGradient id="paint2_linear_354_3030" x1="5" y1="11.0246" x2="10.0704" y2="11.1165" gradientUnits="userSpaceOnUse">
<stop stop-color="#000"/>
<stop offset="1" stop-color="#000"/>
</linearGradient>
<linearGradient id="paint3_linear_354_3030" x1="12" y1="7.81967" x2="18.082" y2="7.98504" gradientUnits="userSpaceOnUse">
<stop stop-color="#000"/>
<stop offset="1" stop-color="#000"/>
</linearGradient>
</defs>
</svg>
