<svg width="56" height="56" viewBox="0 0 56 56" fill="none" xmlns="http://www.w3.org/2000/svg">
<g filter="url(#filter0_d_308_8443)">
<rect x="2" y="1" width="52" height="52" rx="12" fill="white"/>
<path d="M29.28 25.8732C28.5302 25.8653 27.7995 25.6358 27.1799 25.2135C26.5602 24.7911 26.0794 24.1949 25.7979 23.4999C25.5164 22.8049 25.4469 22.0421 25.598 21.3077C25.7491 20.5732 26.1141 19.8998 26.6471 19.3724C27.1801 18.845 27.8573 18.487 28.5933 18.3436C29.3293 18.2002 30.0913 18.2777 30.7833 18.5665C31.4753 18.8552 32.0665 19.3423 32.4823 19.9663C32.8981 20.5903 33.12 21.3234 33.12 22.0732C33.113 23.0858 32.7049 24.0543 31.9851 24.7666C31.2653 25.4788 30.2926 25.8768 29.28 25.8732ZM29.28 19.6066C28.7939 19.6144 28.321 19.7658 27.9207 20.0416C27.5203 20.3174 27.2104 20.7053 27.0298 21.1567C26.8493 21.608 26.8061 22.1027 26.9057 22.5785C27.0054 23.0543 27.2434 23.4901 27.5899 23.8311C27.9364 24.1721 28.376 24.403 28.8533 24.495C29.3307 24.587 29.8246 24.5359 30.273 24.3481C30.7214 24.1602 31.1043 23.8441 31.3736 23.4394C31.6429 23.0347 31.7866 22.5594 31.7867 22.0732C31.7796 21.4143 31.512 20.7849 31.0423 20.3227C30.5726 19.8605 29.939 19.603 29.28 19.6066Z" fill="#44454B"/>
<path d="M29.28 25.8732C28.5301 25.8653 27.7994 25.6358 27.1798 25.2135C26.5602 24.7911 26.0793 24.1949 25.7979 23.4999C25.5164 22.8049 25.4468 22.0421 25.5979 21.3077C25.749 20.5732 26.1141 19.8998 26.647 19.3724C27.18 18.845 27.8572 18.487 28.5932 18.3436C29.3292 18.2002 30.0912 18.2777 30.7832 18.5665C31.4753 18.8552 32.0664 19.3423 32.4822 19.9663C32.898 20.5903 33.1199 21.3234 33.12 22.0732C33.1129 23.0858 32.7048 24.0543 31.985 24.7666C31.2653 25.4788 30.2925 25.8768 29.28 25.8732ZM29.28 19.6066C28.7939 19.6144 28.321 19.7658 27.9206 20.0416C27.5203 20.3174 27.2103 20.7053 27.0298 21.1567C26.8492 21.608 26.806 22.1027 26.9057 22.5785C27.0053 23.0543 27.2433 23.4901 27.5898 23.8311C27.9363 24.1721 28.3759 24.403 28.8532 24.495C29.3306 24.587 29.8245 24.5359 30.2729 24.3481C30.7213 24.1602 31.1042 23.8441 31.3735 23.4394C31.6428 23.0347 31.7866 22.5594 31.7866 22.0732C31.7796 21.4143 31.512 20.7849 31.0422 20.3227C30.5725 19.8605 29.9389 19.603 29.28 19.6066ZM31.6066 26.7666C28.6496 26.252 25.6055 26.7203 22.94 28.0999C22.7507 28.205 22.5941 28.36 22.4871 28.5482C22.3801 28.7363 22.3269 28.9502 22.3333 29.1666V31.5399C22.3333 31.7167 22.4035 31.8863 22.5285 32.0113C22.6536 32.1363 22.8231 32.2066 23 32.2066C23.1768 32.2066 23.3463 32.1363 23.4714 32.0113C23.5964 31.8863 23.6666 31.7167 23.6666 31.5399V29.2532C26.1384 28.013 28.9493 27.6195 31.6666 28.1332L31.6066 26.7666Z" fill="#44454B"/>
<path d="M39.0001 29.6668H34.5334V28.6801C34.5334 28.5033 34.4632 28.3337 34.3382 28.2087C34.2131 28.0837 34.0436 28.0134 33.8667 28.0134C33.6899 28.0134 33.5204 28.0837 33.3953 28.2087C33.2703 28.3337 33.2001 28.5033 33.2001 28.6801V29.6668H28.3334C28.1566 29.6668 27.987 29.737 27.862 29.862C27.737 29.987 27.6667 30.1566 27.6667 30.3334V37.0001C27.6667 37.1769 27.737 37.3465 27.862 37.4715C27.987 37.5965 28.1566 37.6668 28.3334 37.6668H39.0001C39.1769 37.6668 39.3465 37.5965 39.4715 37.4715C39.5965 37.3465 39.6667 37.1769 39.6667 37.0001V30.3334C39.6667 30.1566 39.5965 29.987 39.4715 29.862C39.3465 29.737 39.1769 29.6668 39.0001 29.6668ZM38.3334 36.3334H29.0001V31.0001H33.2001V31.2734C33.2001 31.4502 33.2703 31.6198 33.3953 31.7448C33.5204 31.8699 33.6899 31.9401 33.8667 31.9401C34.0436 31.9401 34.2131 31.8699 34.3382 31.7448C34.4632 31.6198 34.5334 31.4502 34.5334 31.2734V31.0001H38.3334V36.3334Z" fill="#44454B"/>
<path d="M31.5399 33.28H35.5133V34.2133H31.5399V33.28ZM24.2266 23.16C22.3809 23.1909 20.5672 23.6472 18.9266 24.4933C18.7482 24.5876 18.5987 24.7285 18.4942 24.9012C18.3897 25.0738 18.3341 25.2715 18.3333 25.4733V27.54C18.3333 27.7168 18.4035 27.8864 18.5285 28.0114C18.6535 28.1364 18.8231 28.2067 18.9999 28.2067C19.1767 28.2067 19.3463 28.1364 19.4713 28.0114C19.5963 27.8864 19.6666 27.7168 19.6666 27.54V25.6067C21.2341 24.8264 22.9696 24.4441 24.7199 24.4933C24.4909 24.0755 24.3247 23.6262 24.2266 23.16ZM39.0733 24.4867C37.6018 23.7148 35.9847 23.2606 34.3266 23.1533C34.2289 23.6188 34.0651 24.0678 33.8399 24.4867C35.402 24.524 36.9364 24.9065 38.3333 25.6067V27.54C38.3333 27.7168 38.4035 27.8864 38.5285 28.0114C38.6535 28.1364 38.8231 28.2067 38.9999 28.2067C39.1767 28.2067 39.3463 28.1364 39.4713 28.0114C39.5963 27.8864 39.6666 27.7168 39.6666 27.54V25.4733C39.667 25.2704 39.6119 25.0712 39.5074 24.8973C39.4028 24.7234 39.2527 24.5814 39.0733 24.4867ZM24.1066 22.0733V21.6267C23.5843 21.5568 23.1092 21.2882 22.78 20.8767C22.4508 20.4653 22.293 19.9428 22.3393 19.4179C22.3857 18.893 22.6328 18.4063 23.029 18.059C23.4252 17.7117 23.9402 17.5305 24.4666 17.5533C25.0141 17.5523 25.5404 17.7652 25.9333 18.1467C26.2798 17.8608 26.6605 17.6189 27.0666 17.4267C26.613 16.9051 26.012 16.5332 25.3428 16.36C24.6737 16.1869 23.9677 16.2205 23.3181 16.4566C22.6684 16.6926 22.1055 17.12 21.7036 17.6823C21.3017 18.2446 21.0796 18.9156 21.0666 19.6067C21.0806 20.4525 21.4094 21.2627 21.9888 21.8791C22.5682 22.4955 23.3566 22.8738 24.1999 22.94C24.1434 22.6544 24.1121 22.3644 24.1066 22.0733ZM33.5133 16.22C33.0551 16.2201 32.6016 16.3115 32.1792 16.489C31.7568 16.6664 31.374 16.9262 31.0533 17.2533C31.5039 17.4166 31.9301 17.641 32.3199 17.92C32.6312 17.704 32.9952 17.5764 33.3732 17.551C33.7512 17.5256 34.129 17.6032 34.4664 17.7757C34.8037 17.9481 35.088 18.2089 35.2888 18.5302C35.4896 18.8514 35.5994 19.2212 35.6066 19.6C35.6024 19.9891 35.4881 20.369 35.2769 20.6958C35.0657 21.0227 34.7663 21.283 34.4133 21.4467C34.4401 21.6522 34.4534 21.8593 34.4533 22.0667C34.4515 22.3346 34.4292 22.6021 34.3866 22.8667C35.1128 22.68 35.757 22.2584 36.2188 21.6676C36.6806 21.0768 36.9341 20.3499 36.9399 19.6C36.9311 18.6982 36.5658 17.8365 35.9237 17.2032C35.2817 16.5699 34.4151 16.2164 33.5133 16.22Z" fill="#44454B"/>
</g>
<defs>
<filter id="filter0_d_308_8443" x="0" y="0" width="56" height="56" filterUnits="userSpaceOnUse" color-interpolation-filters="sRGB">
<feFlood flood-opacity="0" result="BackgroundImageFix"/>
<feColorMatrix in="SourceAlpha" type="matrix" values="0 0 0 0 0 0 0 0 0 0 0 0 0 0 0 0 0 0 127 0" result="hardAlpha"/>
<feMorphology radius="1" operator="dilate" in="SourceAlpha" result="effect1_dropShadow_308_8443"/>
<feOffset dy="1"/>
<feGaussianBlur stdDeviation="0.5"/>
<feComposite in2="hardAlpha" operator="out"/>
<feColorMatrix type="matrix" values="0 0 0 0 0.886275 0 0 0 0 0.941176 0 0 0 0 1 0 0 0 0.7 0"/>
<feBlend mode="normal" in2="BackgroundImageFix" result="effect1_dropShadow_308_8443"/>
<feBlend mode="normal" in="SourceGraphic" in2="effect1_dropShadow_308_8443" result="shape"/>
</filter>
</defs>
</svg>
